<svg xmlns="http://www.w3.org/2000/svg" width="22.913" height="20.4" viewBox="0 0 22.913 20.4">
  <g id="menu" transform="translate(-14 -121)">
    <path id="Path_8849" data-name="Path 8849" d="M21.582.7H-.069A.668.668,0,0,1-.7,0,.668.668,0,0,1-.069-.7h21.65a.668.668,0,0,1,.631.7A.668.668,0,0,1,21.582.7Z" transform="translate(14.7 121.7)" fill="#0068ff"/>
    <path id="Path_8850" data-name="Path 8850" d="M21.582.7H-.069A.668.668,0,0,1-.7,0,.668.668,0,0,1-.069-.7h21.65a.668.668,0,0,1,.631.7A.668.668,0,0,1,21.582.7Z" transform="translate(14.7 140.7)" fill="#0068ff"/>
    <path id="Path_8851" data-name="Path 8851" d="M21.582.7H-.069A.668.668,0,0,1-.7,0,.668.668,0,0,1-.069-.7h21.65a.668.668,0,0,1,.631.7A.668.668,0,0,1,21.582.7Z" transform="translate(14.7 131.7)" fill="#0068ff"/>
  </g>
</svg>
