<svg xmlns="http://www.w3.org/2000/svg" width="17.525" height="20.248" viewBox="0 0 17.525 20.248">
  <path id="shopping-bag_" data-name="shopping-bag " d="M17.521,19.583,15.982,4.928a.6.6,0,0,0-.6-.54H12.49V3.729a3.728,3.728,0,0,0-7.456,0v.659H2.141a.6.6,0,0,0-.6.54L0,19.583a.6.6,0,0,0,.6.665H16.921a.6.6,0,0,0,.6-.665ZM6.239,3.729a2.523,2.523,0,0,1,5.046,0v.659H6.239ZM1.271,19.043,2.684,5.593h2.35V6.921a.6.6,0,0,0,1.205,0V5.593h5.046V6.921a.6.6,0,0,0,1.205,0V5.593h2.35l1.412,13.45Zm0,0" transform="translate(0 0)" fill="#0a6eff"/>
</svg>
