<svg id="user" xmlns="http://www.w3.org/2000/svg" width="17.796" height="20.248" viewBox="0 0 17.796 20.248">
  <g id="Group_5" data-name="Group 5" transform="translate(3.559)">
    <g id="Group_4" data-name="Group 4">
      <path id="Path_2" data-name="Path 2" d="M126.339,0a5.339,5.339,0,1,0,5.339,5.339A5.345,5.345,0,0,0,126.339,0Zm0,9.491a4.152,4.152,0,1,1,4.152-4.152A4.157,4.157,0,0,1,126.339,9.491Z" transform="translate(-121)" fill="#0068ff"/>
    </g>
  </g>
  <g id="Group_7" data-name="Group 7" transform="translate(0 11.864)">
    <g id="Group_6" data-name="Group 6">
      <path id="Path_3" data-name="Path 3" d="M46.54,302.3a7.611,7.611,0,0,0-5.456-2.3H38.712a7.611,7.611,0,0,0-5.456,2.3A7.78,7.78,0,0,0,31,307.791a.593.593,0,0,0,.593.593H48.2a.593.593,0,0,0,.593-.593A7.78,7.78,0,0,0,46.54,302.3Zm-14.328,4.9a6.565,6.565,0,0,1,6.5-6.011h2.373a6.565,6.565,0,0,1,6.5,6.011Z" transform="translate(-31 -300)" fill="#0068ff"/>
    </g>
  </g>
</svg>
