<svg id="like" xmlns="http://www.w3.org/2000/svg" width="22.919" height="20.248" viewBox="0 0 22.919 20.248">
  <g id="Group_8" data-name="Group 8" transform="translate(0 0)">
    <path id="Path_4" data-name="Path 4" d="M21.247,31.825a5.773,5.773,0,0,0-9.217.663,8.787,8.787,0,0,0-.571.925,8.78,8.78,0,0,0-.571-.925,5.773,5.773,0,0,0-9.217-.663A6.947,6.947,0,0,0,0,36.439a8.507,8.507,0,0,0,2.343,5.582A52.164,52.164,0,0,0,8.207,47.5c.887.756,1.8,1.537,2.78,2.392l.029.026a.672.672,0,0,0,.885,0l.029-.026c.976-.854,1.894-1.636,2.781-2.392a52.157,52.157,0,0,0,5.864-5.479,8.507,8.507,0,0,0,2.343-5.582A6.947,6.947,0,0,0,21.247,31.825ZM13.84,46.478c-.765.651-1.551,1.322-2.381,2.043-.83-.721-1.617-1.392-2.381-2.043C4.42,42.509,1.343,39.886,1.343,36.439A5.607,5.607,0,0,1,2.68,32.713a4.482,4.482,0,0,1,3.408-1.534,4.527,4.527,0,0,1,3.705,2.086,7.961,7.961,0,0,1,1.028,2.044.671.671,0,0,0,1.277,0,7.961,7.961,0,0,1,1.028-2.044,4.432,4.432,0,0,1,7.113-.552,5.606,5.606,0,0,1,1.337,3.726C21.576,39.886,18.5,42.509,13.84,46.478Z" transform="translate(0 -29.836)" fill="#0068ff"/>
  </g>
</svg>
