<svg id="Group_40" data-name="Group 40" xmlns="http://www.w3.org/2000/svg" xmlns:xlink="http://www.w3.org/1999/xlink" width="255.331" height="34" viewBox="0 0 255.331 34">
  <defs>
    <clipPath id="clip-path">
      <rect id="Rectangle_23" data-name="Rectangle 23" width="255.331" height="34" fill="none"/>
    </clipPath>
  </defs>
  <g id="Group_39" data-name="Group 39" clip-path="url(#clip-path)">
    <path id="Path_8850" data-name="Path 8850" d="M1309.247,70.43c-7.336,0-12.509,5.173-12.509,12.227s5.173,12.227,12.509,12.227c5.408,0,9.64-2.822,11.427-7.1h-3.433c-1.5,2.68-4.326,4.185-7.994,4.185-5.22,0-8.841-3.433-9.264-8.276h21.679V82.657c0-7.054-5.079-12.227-12.415-12.227m-9.17,10.44c.705-4.562,4.326-7.524,9.17-7.524,4.7,0,8.371,2.822,9.123,7.524Z" transform="translate(-1120.976 -60.884)" fill="#0068ff"/>
    <path id="Path_8851" data-name="Path 8851" d="M1513.257,73.347A8.882,8.882,0,0,1,1522,79.084h3.2c-1.364-5.173-5.925-8.653-11.945-8.653-7.336,0-12.509,5.173-12.509,12.227s5.173,12.227,12.509,12.227c6.02,0,10.581-3.48,11.945-8.653H1522a9.371,9.371,0,1,1-8.747-12.885" transform="translate(-1297.334 -60.885)" fill="#0068ff"/>
    <path id="Path_8852" data-name="Path 8852" d="M706.89,6.245a2.35,2.35,0,0,0-2.4,2.4,2.4,2.4,0,1,0,4.8,0,2.35,2.35,0,0,0-2.4-2.4" transform="translate(-609.004 -5.399)" fill="#07012d"/>
    <path id="Path_8853" data-name="Path 8853" d="M1073.272,6.245a2.35,2.35,0,0,0-2.4,2.4,2.4,2.4,0,1,0,4.8,0,2.35,2.35,0,0,0-2.4-2.4" transform="translate(-925.726 -5.399)" fill="#07012d"/>
    <path id="Path_8854" data-name="Path 8854" d="M246.88,87.074c0,5.69-3.292,8.794-8.324,8.794-4.8,0-8.019-2.83-8.3-8.038V85.772c-.013-.247-.023-.5-.023-.756V82.829a11.382,11.382,0,0,0-3.138-7.875l-.013-.013h0V87.074c0,.3.009.584.022.869a14.629,14.629,0,0,0,.561,3.47c.007.024.014.048.021.072.043.141.089.279.136.416.015.043.029.086.044.128.044.124.091.246.139.367.021.052.041.105.063.157.046.112.094.222.144.33.026.058.053.116.08.173q.072.152.149.3.048.092.1.183c.05.093.1.185.154.276.037.063.075.126.113.188.052.085.1.17.159.253.042.065.086.128.13.191s.107.155.163.231.1.129.148.193.109.142.165.211.111.13.168.194.109.128.166.19.131.137.2.2.1.108.156.16h0a11.562,11.562,0,0,0,8.3,2.953c6.866,0,11.474-4,11.474-11.709V74.941H246.88Z" transform="translate(-196.303 -64.783)" fill="#07012d"/>
    <path id="Path_8855" data-name="Path 8855" d="M453.324,81.272h0a14.628,14.628,0,0,0-.561-3.47c-.007-.024-.014-.049-.021-.073-.043-.141-.089-.279-.135-.415-.015-.043-.029-.086-.044-.128-.044-.124-.091-.246-.139-.367-.021-.053-.041-.105-.063-.157-.046-.112-.094-.221-.144-.33-.026-.058-.053-.116-.08-.174q-.072-.152-.149-.3-.048-.092-.1-.183-.075-.139-.154-.275c-.037-.064-.075-.126-.113-.188-.052-.085-.1-.17-.159-.253-.042-.065-.086-.128-.13-.191s-.107-.156-.163-.231-.1-.129-.148-.193-.109-.142-.166-.211-.111-.13-.167-.194-.11-.128-.166-.19-.13-.136-.2-.2-.1-.109-.157-.162h0a11.561,11.561,0,0,0-8.3-2.953c-6.866,0-11.475,4-11.475,11.709V94.273h3.151V82.14c0-5.737,3.292-8.794,8.324-8.794,4.8,0,8.019,2.788,8.3,8.032v2.058c.013.249.022.5.022.762v2.187a11.385,11.385,0,0,0,3.133,7.87l.018.019h0V82.14C453.347,81.845,453.338,81.557,453.324,81.272Z" transform="translate(-372.061 -60.885)" fill="#07012d"/>
    <path id="Path_8856" data-name="Path 8856" d="M643.436,9.949V7.891A11.416,11.416,0,0,0,640.308,0h0V33.391h3.151V10.834c-.013-.247-.022-.5-.022-.756Z" transform="translate(-553.519 -0.003)" fill="#07012d"/>
    <path id="Path_8857" data-name="Path 8857" d="M713.8,85.017V82.83a11.38,11.38,0,0,0-3.14-7.877l-.011-.012V84.994c0,.086.008.173.011.261V98.173h3.151V95.82l.011.012V85.773c0-.086-.008-.172-.011-.259-.006-.164-.011-.329-.011-.5" transform="translate(-614.33 -64.784)" fill="#07012d"/>
    <path id="Path_8858" data-name="Path 8858" d="M800.375,70.431c-3.809,0-6.913,1.787-8.371,5.22a8.667,8.667,0,0,0-8.371-5.22c-5.361,0-9.405,3.339-9.405,10.252V94.273h3.151V80.683c0-4.938,2.728-7.336,6.49-7.336s6.584,2.492,6.584,7.336V94.273H793.6V80.683c0-4.844,2.775-7.336,6.536-7.336,3.572,0,6.209,2.163,6.467,6.607v3.483c.013.249.023.5.023.762v2.188a11.386,11.386,0,0,0,3.129,7.864l.022.022h0V80.683c0-6.913-4.044-10.252-9.405-10.252" transform="translate(-669.288 -60.885)" fill="#07012d"/>
    <path id="Path_8859" data-name="Path 8859" d="M1080.27,84.887V82.828a11.375,11.375,0,0,0-3.151-7.887V98.172h3.151V95.807l.022.023V85.772c-.013-.247-.022-.5-.022-.756Z" transform="translate(-931.124 -64.783)" fill="#07012d"/>
    <path id="Path_8860" data-name="Path 8860" d="M1155.706,36.61v.517c0,4.279-2.4,6.254-5.972,6.254-3.621,0-5.972-2.022-5.972-6.254V35.092l.022.023V25.324h13.662V22.455h-13.685v-.343a11.374,11.374,0,0,0-3.151-7.887v22.9c0,6.113,3.715,9.17,9.123,9.17,5.361,0,9.029-3.057,9.029-9.17V36.61Z" transform="translate(-986.01 -12.298)" fill="#0068ff"/>
    <path id="Path_8861" data-name="Path 8861" d="M1726.414,9.546c-4.027,0-7.12,1.773-8.772,5.084v-3.8c-.013-.245-.022-.494-.022-.75V7.888A11.375,11.375,0,0,0,1714.469,0V33.389h3.151V21.256c0-.129,0-.255.007-.382l.015.016v-.377c.283-5.175,3.54-8.051,8.3-8.051,5.032,0,8.324,3.057,8.324,8.794V33.389h3.151V21.256c0-7.947-4.8-11.709-11-11.709" transform="translate(-1482.087)" fill="#0068ff"/>
    <path id="Path_8862" data-name="Path 8862" d="M52.827,82.472c-.013.3-.022.6-.022.9v1.338c-.013.258-.022.519-.022.787v2.276a12.1,12.1,0,0,1-3.148,8.208,9.668,9.668,0,0,0,3.17-2.122,12.1,12.1,0,0,0,3.151-8.211c.013-.3.022-.6.022-.9V80.357a12.1,12.1,0,0,1,3.15-8.21,9.663,9.663,0,0,0-3.15,2.114,12.1,12.1,0,0,0-3.151,8.211" transform="translate(-42.907 -62.368)" fill="#0068ff"/>
    <path id="Path_8863" data-name="Path 8863" d="M3.214,74.261A12.1,12.1,0,0,0,.064,82.472c-.013.3-.022.6-.022.9v1.338L0,88.543A11.588,11.588,0,0,0,2.271,85.08a12.025,12.025,0,0,0,.943-4.39c0-.124,0-.242,0-.349v-.029a12.076,12.076,0,0,1,3.147-8.165,9.663,9.663,0,0,0-3.147,2.111l0,0" transform="translate(0 -62.368)" fill="#0068ff"/>
    <path id="Path_8864" data-name="Path 8864" d="M126.449,130.428a12.019,12.019,0,0,0-.943,4.389c0,.124,0,.242,0,.349v.029a12.075,12.075,0,0,1-3.147,8.165,9.664,9.664,0,0,0,3.147-2.111l0,0a12.1,12.1,0,0,0,3.151-8.211c.013-.3.022-.6.022-.9v-1.338q.021-1.914.041-3.829a11.581,11.581,0,0,0-2.271,3.464" transform="translate(-105.772 -109.756)" fill="#0068ff"/>
    <path id="Path_8865" data-name="Path 8865" d="M102.135,72.141h0Z" transform="translate(-88.291 -62.363)" fill="#0068ff"/>
    <path id="Path_8866" data-name="Path 8866" d="M32.07,248.033l0,0h0Z" transform="translate(-27.723 -214.412)" fill="#0068ff"/>
  </g>
</svg>
